# File created by Blade
# Date/Time:  Tue Sep 30 19:28:49 2014
#---------------------------------------------------------
:version 1.10
:name HOM
:units
  mass 1.0
  length 1.000000
  angle deg
:documentation
     Acclaim Skeleton File
:root
   axis xyz
   order TX TY TZ RX RY RZ
   position 0.000000 0.000000 0.000000
   orientation 0 0 0
:bonedata
   begin
      id 1
      name RightUpLeg_dum
      direction -1.000000 0.000000 0.000000
      length 3.766986
      axis 0.0 0.0 0.0 xyz
   end
   begin
      id 2
      name LeftUpLeg_dum
      direction 1.000000 0.000000 0.000000
      length 3.766986
      axis 0.0 0.0 0.0 xyz
   end
   begin
      id 3
      name Spine_dum
      direction 0.000000 1.000000 0.000000
      length 7.779697
      axis 0.0 0.0 0.0 xyz
   end
   begin
      id 4
      name RightUpLeg
      direction 0.000000 -1.000000 0.000000
      length 18.017682
      axis 0.0 0.0 0.0 xyz
      dof rx ry rz
   end
   begin
      id 5
      name RightLeg
      direction 0.000000 -1.000000 0.000000
      length 16.881075
      axis 0.0 0.0 0.0 xyz
      dof rx ry rz
   end
   begin
      id 6
      name RightFoot
      direction 0.000000 -0.258819 0.965926
      length 5.770812
      axis 15.0 0.0 0.0 xyz
      dof rx ry rz
   end
   begin
      id 7
      name RightToeBase
      direction 0.000000 0.000000 1.000000
      length 2.952750
      axis 0.0 0.0 0.0 xyz
      dof rx ry rz
   end
   begin
      id 8
      name LeftUpLeg
      direction 0.000000 -1.000000 0.000000
      length 18.017682
      axis 0.0 0.0 0.0 xyz
      dof rx ry rz
   end
   begin
      id 9
      name LeftLeg
      direction 0.000000 -1.000000 0.000000
      length 16.881075
      axis 0.0 0.0 0.0 xyz
      dof rx ry rz
   end
   begin
      id 10
      name LeftFoot
      direction 0.000000 -0.258819 0.965926
      length 5.770812
      axis 15.0 0.0 0.0 xyz
      dof rx ry rz
   end
   begin
      id 11
      name LeftToeBase
      direction 0.000000 0.000000 1.000000
      length 2.952750
      axis 0.0 0.0 0.0 xyz
      dof rx ry rz
   end
   begin
      id 12
      name Spine
      direction 0.000000 1.000000 0.000000
      length 0.000000
      axis 0.0 0.0 0.0 xyz
      dof rx ry rz
   end
   begin
      id 13
      name Spine_dum1
      direction 0.000000 1.000000 0.000000
      length 10.941760
      axis 0.0 0.0 0.0 xyz
   end
   begin
      id 14
      name Spine_dum2
      direction 0.000000 1.000000 0.000000
      length 10.941760
      axis 0.0 0.0 0.0 xyz
   end
   begin
      id 15
      name Spine_dum3
      direction 0.000000 1.000000 0.000000
      length 16.646042
      axis 0.0 0.0 0.0 xyz
   end
   begin
      id 16
      name RightShoulder
      direction -1.000000 0.000000 0.000000
      length 7.708937
      axis 0.0 0.0 90.0 xyz
      dof rx ry rz
   end
   begin
      id 17
      name RightArm
      direction -1.000000 0.000000 0.000000
      length 11.521345
      axis 0.0 0.0 90.0 xyz
      dof rx ry rz
   end
   begin
      id 18
      name RightForeArm
      direction -1.000000 0.000000 0.000000
      length 10.175898
      axis 0.0 0.0 90.0 xyz
      dof ry rz rx
   end
   begin
      id 19
      name RightHand
      direction -1.000000 0.000000 0.000000
      length 0.000000
      axis 0.0 0.0 90.0 xyz
      dof rx ry rz
   end
   begin
      id 20
      name RightHand_dum1
      direction -1.000000 0.000000 0.000000
      length 3.937000
      axis 0.0 0.0 90.0 xyz
   end
   begin
      id 21
      name RightHand_dum2
      direction 0.000000 0.000000 0.000000
      length 0.000000
      axis 0.0 0.0 90.0 xyz
   end
   begin
      id 22
      name RightHandThumb1
      direction 0.000000 0.000000 1.000000
      length 3.937000
      axis 0.0 0.0 90.0 xyz
      dof rx rz ry
   end
   begin
      id 23
      name LeftShoulder
      direction 1.000000 0.000000 0.000000
      length 7.708937
      axis 0.0 0.0 -90.0 xyz
      dof rx ry rz
   end
   begin
      id 24
      name LeftArm
      direction 1.000000 0.000000 0.000000
      length 11.521345
      axis 0.0 0.0 -90.0 xyz
      dof rx ry rz
   end
   begin
      id 25
      name LeftForeArm
      direction 1.000000 0.000000 0.000000
      length 10.175898
      axis 0.0 0.0 -90.0 xyz
      dof ry rz rx
   end
   begin
      id 26
      name LeftHand
      direction 1.000000 0.000000 0.000000
      length 0.000000
      axis 0.0 0.0 -90.0 xyz
      dof rx ry rz
   end
   begin
      id 27
      name LeftHand_dum1
      direction 1.000000 0.000000 0.000000
      length 3.937000
      axis 0.0 0.0 -90.0 xyz
   end
   begin
      id 28
      name LeftHand_dum2
      direction 0.000000 0.000000 0.000000
      length 0.000000
      axis 0.0 0.0 -90.0 xyz
   end
   begin
      id 29
      name LeftHandThumb1
      direction 0.000000 0.000000 1.000000
      length 3.937000
      axis 0.0 0.0 -90.0 xyz
      dof rx rz ry
   end
   begin
      id 30
      name Head
      direction 0.000000 1.000000 0.000000
      length 4.527550
      axis 0.0 0.0 0.0 xyz
      dof rx ry rz
   end
:hierarchy
   begin
      root RightUpLeg_dum LeftUpLeg_dum Spine_dum
      RightUpLeg_dum RightUpLeg
      LeftUpLeg_dum LeftUpLeg
      Spine_dum Spine
      RightUpLeg RightLeg
      RightLeg RightFoot
      RightFoot RightToeBase
      LeftUpLeg LeftLeg
      LeftLeg LeftFoot
      LeftFoot LeftToeBase
      Spine Spine_dum1 Spine_dum2 Spine_dum3
      Spine_dum1 RightShoulder
      Spine_dum2 LeftShoulder
      Spine_dum3 Head
      RightShoulder RightArm
      RightArm RightForeArm
      RightForeArm RightHand
      RightHand RightHand_dum1 RightHand_dum2
      RightHand_dum2 RightHandThumb1
      LeftShoulder LeftArm
      LeftArm LeftForeArm
      LeftForeArm LeftHand
      LeftHand LeftHand_dum1 LeftHand_dum2
      LeftHand_dum2 LeftHandThumb1
   end

# File created by Blade
# Date/Time:  Mon Sep 22 15:50:36 2014
# Frame Rate: 120.000 fps
#------------------------------------------------------
:FULLY-SPECIFIED
:DEGREES
1
root 2.529143 37.045005 2.626885 -2.143305 -5.657643 1.939827
RightUpLeg 8.804368 -3.996506 -4.601387
RightLeg -4.734186 -0.000000 0.000000
RightFoot -11.749291 -14.839331 15.303559
RightToeBase 14.832863 -0.000000 -0.000000
LeftUpLeg 8.325608 3.631775 0.575339
LeftLeg -2.134912 -0.000000 0.000000
LeftFoot -10.607929 14.676294 -17.267600
LeftToeBase 9.504664 -0.000000 -0.000000
Spine 5.263563 -1.890148 -2.585071
RightShoulder -3.504958 -14.064703 -24.280828
RightArm 12.269864 26.903362 36.057732
RightForeArm 13.644726 -0.000000 20.267591
RightHand -2.600829 -0.000000 -6.756456
RightHandThumb1 -24.326973 -0.000000 -32.862282
LeftShoulder -24.513573 31.821040 13.449681
LeftArm 49.136608 -50.392623 -60.096047
LeftForeArm 45.379283 -0.000000 5.251769
LeftHand -21.614426 -0.000000 -4.922236
LeftHandThumb1 -26.253704 0.000000 33.147579
Head -3.357119 12.383962 4.364979
2
root 2.528999 37.044661 2.628400 -2.147732 -5.661779 1.963111
RightUpLeg 8.805314 -3.985285 -4.616720
RightLeg -4.733160 -0.000000 0.000000
RightFoot -11.763775 -14.887305 15.256423
RightToeBase 14.826336 -0.000000 -0.000000
LeftUpLeg 8.333451 3.633311 0.552511
LeftLeg -2.140063 -0.000000 0.000000
LeftFoot -10.608802 14.675621 -17.294013
LeftToeBase 9.516494 -0.000000 -0.000000
Spine 5.230444 -1.882027 -2.643385
RightShoulder -3.473160 -14.044688 -24.135345
RightArm 12.140501 27.118997 36.045042
RightForeArm 14.102465 -0.000000 20.641064
RightHand -2.492266 -0.000000 -6.783608
RightHandThumb1 -24.326973 -0.000000 -32.862282
LeftShoulder -24.511743 31.867587 13.496958
LeftArm 49.366912 -50.460916 -60.471773
LeftForeArm 45.132170 -0.000000 5.460666
LeftHand -21.716260 -0.000000 -4.704312
LeftHandThumb1 -26.253704 0.000000 33.147579
Head -3.367311 11.764688 4.264156
3
root 2.529670 37.044940 2.629793 -2.152250 -5.665200 1.962435
RightUpLeg 8.808980 -3.961700 -4.616795
RightLeg -4.728560 -0.000000 0.000000
RightFoot -11.764095 -14.896748 15.255881
RightToeBase 14.840623 -0.000000 -0.000000
LeftUpLeg 8.338809 3.637343 0.550919
LeftLeg -2.138195 -0.000000 0.000000
LeftFoot -10.606232 14.693698 -17.276326
LeftToeBase 9.496038 -0.000000 -0.000000
Spine 5.220047 -1.896456 -2.614857
RightShoulder -3.497378 -14.064192 -24.075712
RightArm 12.077324 27.504326 36.200612
RightForeArm 14.684020 -0.000000 21.227084
RightHand -2.508740 -0.000000 -6.795151
RightHandThumb1 -24.326973 -0.000000 -32.862282
LeftShoulder -24.529973 31.842763 13.409826
LeftArm 49.547955 -50.582733 -60.744613
LeftForeArm 44.883021 0.000000 5.681510
LeftHand -21.683848 0.000000 -4.438081
LeftHandThumb1 -26.253704 0.000000 33.147579
Head -3.384219 11.739961 4.214970
4
root 2.532911 37.045245 2.632570 -2.167981 -5.670942 1.947762
RightUpLeg 8.827079 -3.972158 -4.617569
RightLeg -4.719773 -0.000000 0.000000
RightFoot -11.741758 -14.841448 15.280903
RightToeBase 14.778909 -0.000000 -0.000000
LeftUpLeg 8.362682 3.641242 0.556057
LeftLeg -2.138577 -0.000000 0.000000
LeftFoot -10.644459 14.708241 -17.340815
LeftToeBase 9.524099 -0.000000 -0.000000
Spine 5.245185 -1.921426 -2.518667
RightShoulder -3.560374 -14.033774 -24.091863
RightArm 12.030673 27.986975 36.487854
RightForeArm 15.338786 -0.000000 21.967847
RightHand -2.477342 -0.000000 -6.959562
RightHandThumb1 -24.326973 -0.000000 -32.862282
LeftShoulder -24.572408 31.709133 13.214871
LeftArm 49.660668 -50.686179 -60.878609
LeftForeArm 44.296141 0.000000 5.879172
LeftHand -21.588985 0.000000 -3.842734
LeftHandThumb1 -26.253704 0.000000 33.147579
Head -3.399155 12.368383 4.255078
5
root 2.534109 37.045440 2.634756 -2.189077 -5.691664 1.946283
RightUpLeg 8.839493 -3.931615 -4.610550
RightLeg -4.709379 -0.000000 0.000000
RightFoot -11.757981 -14.889880 15.264193
RightToeBase 14.817814 -0.000000 -0.000000
LeftUpLeg 8.393643 3.649644 0.560442
LeftLeg -2.148093 -0.000000 0.000000
LeftFoot -10.625036 14.704265 -17.292962
LeftToeBase 9.504740 -0.000000 -0.000000
Spine 5.254327 -1.923717 -2.479603
RightShoulder -3.571105 -14.005555 -23.988001
RightArm 11.883683 28.462392 36.634233
RightForeArm 16.349161 -0.000000 22.773099
RightHand -2.341137 -0.000000 -7.102383
RightHandThumb1 -24.326973 -0.000000 -32.862282
LeftShoulder -24.641574 31.627528 13.068605
LeftArm 49.991794 -50.814903 -61.272884
LeftForeArm 43.618549 -0.000000 6.139071
LeftHand -21.717689 -0.000000 -3.174807
LeftHandThumb1 -26.253704 0.000000 33.147579
Head -3.419449 12.434589 4.221445
6
root 2.534710 37.045895 2.635358 -2.177370 -5.704864 1.946827
RightUpLeg 8.823697 -3.873609 -4.606047
RightLeg -4.705865 -0.000000 0.000000
RightFoot -11.753457 -14.929445 15.235967
RightToeBase 14.798805 -0.000000 -0.000000
LeftUpLeg 8.377221 3.684252 0.560659
LeftLeg -2.134251 -0.000000 0.000000
LeftFoot -10.633285 14.680522 -17.319879
LeftToeBase 9.513457 -0.000000 -0.000000
Spine 5.215991 -1.928467 -2.447756
RightShoulder -3.610586 -14.042033 -23.864936
RightArm 11.790068 28.996806 36.860045
RightForeArm 17.410950 -0.000000 23.732913
RightHand -2.307104 -0.000000 -7.283971
RightHandThumb1 -24.326973 -0.000000 -32.862282
LeftShoulder -24.705795 31.519885 12.947970
LeftArm 50.336251 -50.951795 -61.787399
LeftForeArm 42.877916 -0.000000 6.554270
LeftHand -21.896793 -0.000000 -2.225968
LeftHandThumb1 -26.253704 0.000000 33.147579
Head -3.415541 12.425270 4.156155
7
root 2.537347 37.047181 2.632008 -2.183219 -5.702139 1.944252
RightUpLeg 8.803244 -3.882229 -4.605461
RightLeg -4.664979 -0.000000 0.000000
RightFoot -11.761666 -14.927412 15.264284
RightToeBase 14.791326 -0.000000 -0.000000
LeftUpLeg 8.364849 3.674861 0.557711
LeftLeg -2.110928 -0.000000 0.000000
LeftFoot -10.634991 14.694769 -17.314992
LeftToeBase 9.534929 -0.000000 -0.000000
Spine 5.220358 -1.954467 -2.399942
RightShoulder -3.659036 -14.054941 -23.727706
RightArm 11.724114 29.525583 37.096815
RightForeArm 18.533306 0.000000 24.738248
RightHand -2.103318 -0.000000 -7.795630
RightHandThumb1 -24.326973 -0.000000 -32.862282
LeftShoulder -24.821575 31.451324 12.740003
LeftArm 50.873171 -51.113418 -62.444052
LeftForeArm 41.997354 -0.000000 7.020733
LeftHand -22.066570 -0.000000 -1.443271
LeftHandThumb1 -26.253704 0.000000 33.147579
Head -3.436494 12.434737 4.071624
8
root 2.538230 37.047226 2.630811 -2.179636 -5.732606 1.946347
RightUpLeg 8.781475 -3.822687 -4.605779
RightLeg -4.645481 -0.000000 0.000000
RightFoot -11.790636 -14.931802 15.297024
RightToeBase 14.815407 -0.000000 -0.000000
LeftUpLeg 8.358005 3.706693 0.555489
LeftLeg -2.101690 -0.000000 0.000000
LeftFoot -10.646912 14.691808 -17.316042
LeftToeBase 9.597184 -0.000000 -0.000000
Spine 5.193417 -1.956814 -2.359593
RightShoulder -3.713675 -14.166365 -23.571912
RightArm 11.731604 30.002818 37.354220
RightForeArm 19.839986 0.000000 25.816740
RightHand -1.800745 -0.000000 -8.268939
RightHandThumb1 -24.326973 -0.000000 -32.862282
LeftShoulder -24.932559 31.402315 12.520561
LeftArm 51.413162 -51.298030 -63.155059
LeftForeArm 40.915600 -0.000000 7.616290
LeftHand -22.352875 -0.000000 -0.590871
LeftHandThumb1 -26.253704 0.000000 33.147579
Head -3.432964 12.434157 3.983208
9
root 2.540399 37.048578 2.634222 -2.215762 -5.755547 1.952249
RightUpLeg 8.810763 -3.794057 -4.616461
RightLeg -4.632115 -0.000000 0.000000
RightFoot -11.766865 -14.931946 15.265876
RightToeBase 14.745495 -0.000000 -0.000000
LeftUpLeg 8.402204 3.757819 0.552806
LeftLeg -2.103226 -0.000000 0.000000
LeftFoot -10.636771 14.664653 -17.330450
LeftToeBase 9.548297 -0.000000 -0.000000
Spine 5.200812 -1.971126 -2.311299
RightShoulder -3.776178 -14.343396 -23.400342
RightArm 11.777772 30.402762 37.622900
RightForeArm 21.292075 -0.000000 27.018160
RightHand -1.425952 0.000000 -8.900094
RightHandThumb1 -24.326973 -0.000000 -32.862282
LeftShoulder -25.021019 31.249902 12.354309
LeftArm 51.872597 -51.439561 -63.905685
LeftForeArm 39.654800 0.000000 8.356824
LeftHand -22.459549 0.000000 0.055468
LeftHandThumb1 -26.253704 0.000000 33.147579
Head -3.399520 12.430587 3.874853
10
root 2.542787 37.048510 2.635860 -2.245148 -5.780971 1.955771
RightUpLeg 8.830772 -3.753412 -4.627606
RightLeg -4.614365 -0.000000 0.000000
RightFoot -11.781192 -14.916352 15.264093
RightToeBase 14.751804 -0.000000 -0.000000
LeftUpLeg 8.432784 3.781345 0.542374
LeftLeg -2.094549 -0.000000 0.000000
LeftFoot -10.660270 14.695668 -17.347182
LeftToeBase 9.591541 -0.000000 -0.000000
Spine 5.211228 -2.000990 -2.262256
RightShoulder -3.856560 -14.557370 -23.234734
RightArm 11.901998 30.689928 37.939796
RightForeArm 22.858794 0.000000 28.300465
RightHand -1.051928 -0.000000 -9.591308
RightHandThumb1 -24.326973 -0.000000 -32.862282
LeftShoulder -25.197709 31.172943 12.089671
LeftArm 52.559143 -51.592323 -64.841140
LeftForeArm 38.154730 -0.000000 9.173574
LeftHand -22.741204 -0.000000 0.760234
LeftHandThumb1 -26.253704 0.000000 33.147579
Head -3.393574 12.502748 3.796736
